#Comment line ignore any data following # character 
#Hierarchical Translation and Rotation (.htr) file 
[Header]	
#Header keywords are followed by a single value 
FileType HTR		#Single word string
DataType HTRS		#Translation followed by rotation and scale data
FileVersion 1		#integer
NumSegments 84		#integer
NumFrames 2		#integer
DataFrameRate 30		#integer, data frame rate in this file
EulerRotationOrder ZYX
CalibrationUnits mm
RotationUnits Degrees
GlobalAxisofGravity Y
BoneLengthAxis Y
ScaleFactor 1.00
[SegmentNames&Hierarchy]
#CHILD	PARENT
MASTER GLOBAL
root MASTER
chest root
L_mid_tent01 root
R_mid_tent01 root
spine01 root
Bip01_Neck chest
L_humerus chest
R_humerus chest
weapon_bone chest
Bip01_Head Bip01_Neck
eye_left_bone Bip01_Head
eye_right_bone Bip01_Head
L_forearm L_humerus
L_front_hand L_forearm
L_weapon_bone L_forearm
L_front_hand01_01 L_front_hand
L_front_hand02_01 L_front_hand
L_front_hand03_01 L_front_hand
L_front_hand01_02 L_front_hand01_01
L_front_hand02_02 L_front_hand02_01
L_front_hand03_02 L_front_hand03_01
R_forearm R_humerus
R_front_hand R_forearm
R_weapon_bone R_forearm
R_front_hand01_01 R_front_hand
R_front_hand02_01 R_front_hand
R_front_hand03_01 R_front_hand
R_front_hand01_02 R_front_hand01_01
R_front_hand02_02 R_front_hand02_01
R_front_hand03_02 R_front_hand03_01
null_rope01_connect L_mid_tent01
Rope1_Seg01 null_rope01_connect
Rope1_Seg02 Rope1_Seg01
Rope1_Seg03 Rope1_Seg02
Rope1_Seg04 Rope1_Seg03
Rope1_Seg05 Rope1_Seg04
Rope1_Seg06 Rope1_Seg05
Rope1_Seg07 Rope1_Seg06
Rope1_Seg09 Rope1_Seg07
L_mid_hand01 Rope1_Seg09
L_mid_hand02 Rope1_Seg09
L_mid_hand03 Rope1_Seg09
null_rope02_connect R_mid_tent01
Rope2_Seg01 null_rope02_connect
Rope2_Seg02 Rope2_Seg01
Rope2_Seg03 Rope2_Seg02
Rope2_Seg04 Rope2_Seg03
Rope2_Seg05 Rope2_Seg04
Rope2_Seg06 Rope2_Seg05
Rope2_Seg07 Rope2_Seg06
Rope2_Seg09 Rope2_Seg07
R_mid_hand01 Rope2_Seg09
R_mid_hand02 Rope2_Seg09
R_mid_hand03 Rope2_Seg09
spine02 spine01
spine03 spine02
pelvis spine03
null_rope03_connect pelvis
null_rope04_connect pelvis
Rope3_Seg01 null_rope03_connect
Rope3_Seg02 Rope3_Seg01
Rope3_Seg03 Rope3_Seg02
Rope3_Seg04 Rope3_Seg03
Rope3_Seg05 Rope3_Seg04
Rope3_Seg06 Rope3_Seg05
Rope3_Seg07 Rope3_Seg06
Rope3_Seg08 Rope3_Seg07
Rope3_Seg09 Rope3_Seg08
R_rear_hand01 Rope3_Seg09
R_rear_hand02 Rope3_Seg09
R_rear_hand03 Rope3_Seg09
Rope4_Seg01 null_rope04_connect
Rope4_Seg02 Rope4_Seg01
Rope4_Seg03 Rope4_Seg02
Rope4_Seg04 Rope4_Seg03
Rope4_Seg05 Rope4_Seg04
Rope4_Seg06 Rope4_Seg05
Rope4_Seg07 Rope4_Seg06
Rope4_Seg08 Rope4_Seg07
Rope4_Seg09 Rope4_Seg08
L_rear_hand01 Rope4_Seg09
L_rear_hand02 Rope4_Seg09
L_rear_hand03 Rope4_Seg09
[BasePosition]
#SegmentName Tx, Ty, Tz, Rx, Ry, Rz, BoneLength
MASTER 0.000000 0.000000 0.000000 -90.000000 0.000000 0.000000 10.000000 
root 0.000000 0.000000 0.000000 0.000000 0.000000 0.000000 10.000000 
chest 0.000000 0.000000 0.000000 0.000000 0.000000 0.000000 10.000000 
L_mid_tent01 0.000000 0.000000 0.000000 0.000000 0.000000 0.000000 10.000000 
R_mid_tent01 0.000000 0.000000 0.000000 0.000000 0.000000 0.000000 10.000000 
spine01 0.000000 0.000000 0.000000 0.000000 0.000000 0.000000 10.000000 
Bip01_Neck 0.000000 0.000000 0.000000 0.000000 0.000000 0.000000 10.000000 
L_humerus 0.000000 0.000000 0.000000 0.000000 0.000000 0.000000 10.000000 
R_humerus 0.000000 0.000000 0.000000 0.000000 0.000000 0.000000 10.000000 
weapon_bone 0.000000 0.000000 0.000000 0.000000 0.000000 0.000000 10.000000 
Bip01_Head 0.000000 0.000000 0.000000 0.000000 0.000000 0.000000 10.000000 
eye_left_bone 0.000000 0.000000 0.000000 0.000000 0.000000 0.000000 10.000000 
eye_right_bone 0.000000 0.000000 0.000000 0.000000 0.000000 0.000000 10.000000 
L_forearm 0.000000 0.000000 0.000000 0.000000 0.000000 0.000000 10.000000 
L_front_hand 0.000000 0.000000 0.000000 0.000000 0.000000 0.000000 10.000000 
L_weapon_bone 0.000000 0.000000 0.000000 0.000000 0.000000 0.000000 10.000000 
L_front_hand01_01 0.000000 0.000000 0.000000 0.000000 0.000000 0.000000 10.000000 
L_front_hand02_01 0.000000 0.000000 0.000000 0.000000 0.000000 0.000000 10.000000 
L_front_hand03_01 0.000000 0.000000 0.000000 0.000000 0.000000 0.000000 10.000000 
L_front_hand01_02 0.000000 0.000000 0.000000 0.000000 0.000000 0.000000 10.000000 
L_front_hand02_02 0.000000 0.000000 0.000000 0.000000 0.000000 0.000000 10.000000 
L_front_hand03_02 0.000000 0.000000 0.000000 0.000000 0.000000 0.000000 10.000000 
R_forearm 0.000000 0.000000 0.000000 0.000000 0.000000 0.000000 10.000000 
R_front_hand 0.000000 0.000000 0.000000 0.000000 0.000000 0.000000 10.000000 
R_weapon_bone 0.000000 0.000000 0.000000 0.000000 0.000000 0.000000 10.000000 
R_front_hand01_01 0.000000 0.000000 0.000000 0.000000 0.000000 0.000000 10.000000 
R_front_hand02_01 0.000000 0.000000 0.000000 0.000000 0.000000 0.000000 10.000000 
R_front_hand03_01 0.000000 0.000000 0.000000 0.000000 0.000000 0.000000 10.000000 
R_front_hand01_02 0.000000 0.000000 0.000000 0.000000 0.000000 0.000000 10.000000 
R_front_hand02_02 0.000000 0.000000 0.000000 0.000000 0.000000 0.000000 10.000000 
R_front_hand03_02 0.000000 0.000000 0.000000 0.000000 0.000000 0.000000 10.000000 
null_rope01_connect 0.000000 0.000000 0.000000 0.000000 0.000000 0.000000 10.000000 
Rope1_Seg01 0.000000 0.000000 0.000000 0.000000 0.000000 0.000000 10.000000 
Rope1_Seg02 0.000000 0.000000 0.000000 0.000000 0.000000 0.000000 10.000000 
Rope1_Seg03 0.000000 0.000000 0.000000 0.000000 0.000000 0.000000 10.000000 
Rope1_Seg04 0.000000 0.000000 0.000000 0.000000 0.000000 0.000000 10.000000 
Rope1_Seg05 0.000000 0.000000 0.000000 0.000000 0.000000 0.000000 10.000000 
Rope1_Seg06 0.000000 0.000000 0.000000 0.000000 0.000000 0.000000 10.000000 
Rope1_Seg07 0.000000 0.000000 0.000000 0.000000 0.000000 0.000000 10.000000 
Rope1_Seg09 0.000000 0.000000 0.000000 0.000000 0.000000 0.000000 10.000000 
L_mid_hand01 0.000000 0.000000 0.000000 0.000000 0.000000 0.000000 10.000000 
L_mid_hand02 0.000000 0.000000 0.000000 0.000000 0.000000 0.000000 10.000000 
L_mid_hand03 0.000000 0.000000 0.000000 0.000000 0.000000 0.000000 10.000000 
null_rope02_connect 0.000000 0.000000 0.000000 0.000000 0.000000 0.000000 10.000000 
Rope2_Seg01 0.000000 0.000000 0.000000 0.000000 0.000000 0.000000 10.000000 
Rope2_Seg02 0.000000 0.000000 0.000000 0.000000 0.000000 0.000000 10.000000 
Rope2_Seg03 0.000000 0.000000 0.000000 0.000000 0.000000 0.000000 10.000000 
Rope2_Seg04 0.000000 0.000000 0.000000 0.000000 0.000000 0.000000 10.000000 
Rope2_Seg05 0.000000 0.000000 0.000000 0.000000 0.000000 0.000000 10.000000 
Rope2_Seg06 0.000000 0.000000 0.000000 0.000000 0.000000 0.000000 10.000000 
Rope2_Seg07 0.000000 0.000000 0.000000 0.000000 0.000000 0.000000 10.000000 
Rope2_Seg09 0.000000 0.000000 0.000000 0.000000 0.000000 0.000000 10.000000 
R_mid_hand01 0.000000 0.000000 0.000000 0.000000 0.000000 0.000000 10.000000 
R_mid_hand02 0.000000 0.000000 0.000000 0.000000 0.000000 0.000000 10.000000 
R_mid_hand03 0.000000 0.000000 0.000000 0.000000 0.000000 0.000000 10.000000 
spine02 0.000000 0.000000 0.000000 0.000000 0.000000 0.000000 10.000000 
spine03 0.000000 0.000000 0.000000 0.000000 0.000000 0.000000 10.000000 
pelvis 0.000000 0.000000 0.000000 0.000000 0.000000 0.000000 10.000000 
null_rope03_connect 0.000000 0.000000 0.000000 0.000000 0.000000 0.000000 10.000000 
null_rope04_connect 0.000000 0.000000 0.000000 0.000000 0.000000 0.000000 10.000000 
Rope3_Seg01 0.000000 0.000000 0.000000 0.000000 0.000000 0.000000 10.000000 
Rope3_Seg02 0.000000 0.000000 0.000000 0.000000 0.000000 0.000000 10.000000 
Rope3_Seg03 0.000000 0.000000 0.000000 0.000000 0.000000 0.000000 10.000000 
Rope3_Seg04 0.000000 0.000000 0.000000 0.000000 0.000000 0.000000 10.000000 
Rope3_Seg05 0.000000 0.000000 0.000000 0.000000 0.000000 0.000000 10.000000 
Rope3_Seg06 0.000000 0.000000 0.000000 0.000000 0.000000 0.000000 10.000000 
Rope3_Seg07 0.000000 0.000000 0.000000 0.000000 0.000000 0.000000 10.000000 
Rope3_Seg08 0.000000 0.000000 0.000000 0.000000 0.000000 0.000000 10.000000 
Rope3_Seg09 0.000000 0.000000 0.000000 0.000000 0.000000 0.000000 10.000000 
R_rear_hand01 0.000000 0.000000 0.000000 0.000000 0.000000 0.000000 10.000000 
R_rear_hand02 0.000000 0.000000 0.000000 0.000000 0.000000 0.000000 10.000000 
R_rear_hand03 0.000000 0.000000 0.000000 0.000000 0.000000 0.000000 10.000000 
Rope4_Seg01 0.000000 0.000000 0.000000 0.000000 0.000000 0.000000 10.000000 
Rope4_Seg02 0.000000 0.000000 0.000000 0.000000 0.000000 0.000000 10.000000 
Rope4_Seg03 0.000000 0.000000 0.000000 0.000000 0.000000 0.000000 10.000000 
Rope4_Seg04 0.000000 0.000000 0.000000 0.000000 0.000000 0.000000 10.000000 
Rope4_Seg05 0.000000 0.000000 0.000000 0.000000 0.000000 0.000000 10.000000 
Rope4_Seg06 0.000000 0.000000 0.000000 0.000000 0.000000 0.000000 10.000000 
Rope4_Seg07 0.000000 0.000000 0.000000 0.000000 0.000000 0.000000 10.000000 
Rope4_Seg08 0.000000 0.000000 0.000000 0.000000 0.000000 0.000000 10.000000 
Rope4_Seg09 0.000000 0.000000 0.000000 0.000000 0.000000 0.000000 10.000000 
L_rear_hand01 0.000000 0.000000 0.000000 0.000000 0.000000 0.000000 10.000000 
L_rear_hand02 0.000000 0.000000 0.000000 0.000000 0.000000 0.000000 10.000000 
L_rear_hand03 0.000000 0.000000 0.000000 0.000000 0.000000 0.000000 10.000000 
#Beginning of Data. Separated by tabs
#Fr	Tx	Ty	Tz	Rx	Ry	Rz	SF
[MASTER]
27 -0.000815 5415.531250 1680.736206 0.001660 0.001660 0.001660 5670.348633
28 -0.000829 5510.761230 1685.826172 0.001660 0.001660 0.001660 5762.854980
[root]
27 -196.694763 -248.837708 557.665344 -88.581902 -10.449950 -90.639969 641.560303
28 -233.947601 -224.628891 612.696472 -85.342247 -10.955431 -90.617416 693.243530
[chest]
27 -84.512650 -34.090519 0.000000 -8.348050 -0.213637 154.950882 91.129311
28 -84.512650 -34.090519 0.000000 -5.468991 -0.195904 153.835693 91.129311
[L_mid_tent01]
27 27.299143 22.179390 -249.918701 -0.173858 36.621185 68.161667 252.381714
28 27.299145 22.179401 -249.918701 -2.349564 35.735935 64.052933 252.381714
[R_mid_tent01]
27 23.228794 24.509907 226.238495 161.842865 -26.101660 83.323860 228.744751
28 23.228794 24.509907 226.238495 162.965485 -26.471128 81.587059 228.744751
[spine01]
27 -0.361383 -0.195265 0.000000 0.001953 0.001302 22.601351 0.410763
28 -0.361383 -0.195265 0.000000 0.001952 0.001303 22.555948 0.410763
[Bip01_Neck]
27 165.484543 71.581718 0.000119 176.643677 -1.657967 43.431911 180.302734
28 165.484543 71.581718 0.000119 176.643677 -1.657967 43.431911 180.302734
[L_humerus]
27 -13.983130 -135.272980 -120.471481 171.251541 25.851955 -93.461578 181.680161
28 -13.983130 -135.272980 -120.471481 170.899170 28.523914 -94.086594 181.680161
[R_humerus]
27 -13.983309 -135.273102 125.287651 -176.179657 -37.121910 -87.891876 184.909012
28 -13.983309 -135.273102 125.287651 -175.889053 -38.884071 -88.266571 184.909012
[weapon_bone]
27 235.964890 -300.705902 0.000000 0.000000 -89.951546 -128.212341 382.234833
28 235.964890 -300.705902 0.000000 0.000000 -89.951546 -128.212341 382.234833
[Bip01_Head]
27 213.350204 185.976257 8.411608 5.200446 6.151311 -43.834991 283.154083
28 213.363647 185.938721 8.896426 5.200446 6.151311 -43.834991 283.154358
[eye_left_bone]
27 -24.626970 125.451866 -64.772606 0.000000 -90.000000 -99.840431 143.318359
28 -24.626970 125.451866 -64.772606 0.000000 -90.000000 -99.840431 143.318359
[eye_right_bone]
27 -24.626970 125.451866 64.327362 0.000000 -89.965736 80.156380 143.117676
28 -24.626970 125.451866 64.327362 0.000000 -89.965736 80.156380 143.117676
[L_forearm]
27 322.776093 0.000000 -0.000119 0.000247 -0.002334 -102.099762 322.776093
28 322.776093 0.000000 -0.000119 0.000257 -0.002333 -102.578331 322.776093
[L_front_hand]
27 241.149185 -0.042021 -3.300071 -178.667694 -1.835448 -27.422352 241.171753
28 241.149185 -0.042021 -3.300071 -144.082993 -1.836660 -27.423410 241.171753
[L_weapon_bone]
27 156.183838 0.000000 0.000000 0.000014 0.000007 0.000001 156.183838
28 156.183838 0.000000 0.000000 0.000014 0.000007 0.000001 156.183838
[L_front_hand01_01]
27 86.095154 20.947098 -0.655860 -0.365735 -0.477812 75.179466 88.609184
28 86.095154 20.947098 -0.655860 -0.366593 -0.477154 75.385513 88.609184
[L_front_hand02_01]
27 86.935165 -11.437475 24.513514 154.083481 -59.794327 -61.001266 91.046425
28 86.935165 -11.437475 24.513514 154.399704 -59.883820 -61.369476 91.046425
[L_front_hand03_01]
27 86.637497 -14.123976 -20.424902 -153.626984 58.028236 -62.364826 90.126129
28 86.637497 -14.123976 -20.424902 -153.913773 58.118107 -62.702770 90.126129
[L_front_hand01_02]
27 71.020905 -0.000179 0.000030 0.000000 0.000000 -57.378868 71.020905
28 71.020905 -0.000179 0.000030 0.001534 0.001777 -8.379025 71.020905
[L_front_hand02_02]
27 71.020927 -0.000119 0.000060 0.000000 0.000000 -57.378868 71.020927
28 71.020927 -0.000119 0.000060 0.001534 0.001777 -8.379025 71.020927
[L_front_hand03_02]
27 71.020905 -0.000060 0.000060 0.000000 0.000000 -57.378868 71.020905
28 71.020905 -0.000060 0.000060 0.001534 0.001777 -8.379025 71.020905
[R_forearm]
27 322.776428 -0.000060 0.000030 0.209092 0.036512 -100.683716 322.776428
28 322.776428 -0.000060 0.000030 0.207979 0.038177 -101.165543 322.776428
[R_front_hand]
27 238.847015 -0.006795 2.210259 -2.635457 -10.645463 -26.312508 238.857239
28 238.847015 -0.006795 2.210259 -23.516157 -10.644106 -26.314966 238.857239
[R_weapon_bone]
27 155.664093 0.002503 -0.000030 0.003487 0.001180 -90.988930 155.664078
28 155.664093 0.002503 -0.000030 0.003487 0.001180 -90.988930 155.664078
[R_front_hand01_01]
27 87.624611 14.231146 22.918642 -149.546387 -58.334763 55.817688 91.683487
28 87.624611 14.231146 22.918642 -138.750320 -52.998219 42.777645 91.683487
[R_front_hand02_01]
27 89.356956 14.367283 -19.491137 149.824005 56.698959 58.082924 92.579636
28 89.356956 14.367283 -19.491137 139.579193 51.434795 45.462971 92.579636
[R_front_hand03_01]
27 87.286232 -22.307278 -0.143439 0.134486 -0.432609 -72.329582 90.091743
28 87.286232 -22.307278 -0.143439 0.065239 -0.451614 -63.269840 90.091743
[R_front_hand01_02]
27 71.020905 0.000060 0.000119 0.002476 0.000724 57.379066 71.020905
28 71.020905 0.000060 0.000119 0.001777 0.001534 8.377220 71.020905
[R_front_hand02_02]
27 71.020844 -0.000030 -0.000119 0.002476 0.000724 57.379066 71.020836
28 71.020844 -0.000030 -0.000119 0.001777 0.001534 8.377220 71.020836
[R_front_hand03_02]
27 71.020905 0.000000 0.000030 0.002476 0.000724 57.379066 71.020905
28 71.020905 0.000000 0.000030 0.001777 0.001534 8.377220 71.020905
[null_rope01_connect]
27 328.732483 0.000000 -0.000238 -146.523712 -54.343239 178.413559 328.732483
28 328.732483 0.000000 -0.000238 -143.543427 -58.115013 178.997513 328.732483
[Rope1_Seg01]
27 0.000038 -0.000392 0.000058 116.140526 -23.898109 148.548630 0.000398
28 0.000038 -0.000406 0.000054 114.853127 -14.841552 148.310440 0.000411
[Rope1_Seg02]
27 139.999863 -0.000179 0.000000 -1.223040 -9.072740 -14.747905 139.999863
28 139.999863 -0.000179 0.000000 -0.453007 -6.257461 -12.231069 139.999863
[Rope1_Seg03]
27 139.999924 0.000060 -0.000060 1.056841 -12.384353 -19.124655 139.999924
28 139.999924 0.000060 -0.000060 1.703060 -9.979207 -17.285604 139.999924
[Rope1_Seg04]
27 139.999924 -0.000060 -0.000119 2.652221 -9.566901 -17.612377 139.999924
28 139.999924 -0.000060 -0.000119 3.919584 -10.007681 -18.071764 139.999924
[Rope1_Seg05]
27 139.999832 0.000119 -0.000060 16.371769 -10.728100 -42.100533 139.999832
28 139.999832 0.000119 -0.000060 19.586903 -9.175091 -44.108974 139.999832
[Rope1_Seg06]
27 139.999954 0.000119 -0.000060 20.395329 -13.555604 -26.752232 139.999954
28 139.999954 0.000119 -0.000060 22.527910 -13.196877 -25.640053 139.999954
[Rope1_Seg07]
27 139.999985 0.000060 0.000000 7.195577 -7.534636 -7.215695 139.999985
28 139.999985 0.000060 0.000000 7.400976 -7.278548 -6.237645 139.999985
[Rope1_Seg09]
27 121.602913 0.000119 -0.000089 -89.793175 -1.359789 0.847147 121.602913
28 121.602913 0.000119 -0.000089 -89.793175 -1.359789 0.847147 121.602913
[L_mid_hand01]
27 103.859421 1.038730 8.195221 127.696304 -66.076546 -35.766636 104.187431
28 103.859421 1.038730 8.195221 129.753738 -67.188766 -38.008984 104.187431
[L_mid_hand02]
27 105.572853 -4.139662 -10.864139 -167.140030 43.006096 -70.902924 106.211075
28 105.572853 -4.139662 -10.864139 -168.447937 43.306499 -72.811874 106.211075
[L_mid_hand03]
27 104.641464 17.579376 -3.913581 -6.629645 17.597929 72.871590 106.179977
28 104.641464 17.579376 -3.913581 -6.178543 17.755550 74.357056 106.179977
[null_rope02_connect]
27 328.732849 0.000179 -0.000119 -128.333221 58.034321 29.908644 328.732849
28 328.732849 0.000179 -0.000119 -131.407394 55.778118 24.176512 328.732849
[Rope2_Seg01]
27 0.000062 0.000058 0.000000 -41.975021 -16.849428 28.964346 0.000085
28 0.000063 0.000054 0.000000 -44.651348 -3.493536 26.967466 0.000083
[Rope2_Seg02]
27 139.999741 -0.000060 -0.000119 -1.384634 3.893446 7.050915 139.999756
28 139.999741 -0.000060 -0.000119 -2.767100 4.928152 7.836430 139.999756
[Rope2_Seg03]
27 140.000107 0.000030 0.000000 -2.171287 3.741314 14.166632 140.000107
28 140.000107 0.000030 0.000000 -4.241099 2.688568 15.539498 140.000107
[Rope2_Seg04]
27 139.999802 0.000000 -0.000060 -1.692059 7.603197 21.879950 139.999802
28 139.999802 0.000000 -0.000060 -4.648659 14.012543 19.074944 139.999802
[Rope2_Seg05]
27 139.999985 -0.000060 0.000119 -13.857600 57.844723 23.943277 139.999985
28 139.999985 -0.000060 0.000119 -23.123125 48.188126 15.401040 139.999985
[Rope2_Seg06]
27 139.999893 -0.000030 -0.000119 -25.286591 17.002390 16.910751 139.999893
28 139.999893 -0.000030 -0.000119 -19.847136 10.592239 12.224895 139.999893
[Rope2_Seg07]
27 139.999893 0.000060 -0.000060 -8.691692 2.105770 7.208484 139.999893
28 139.999893 0.000060 -0.000060 -8.616858 2.258817 6.283724 139.999893
[Rope2_Seg09]
27 121.338966 0.000089 -0.000060 33.793236 -1.359788 -0.847141 121.338966
28 121.338966 0.000089 -0.000060 33.793236 -1.359788 -0.847141 121.338966
[R_mid_hand01]
27 104.680779 11.144459 -10.335981 -26.991863 40.639965 54.704506 105.778534
28 104.680779 11.144459 -10.335981 -23.980064 42.262295 59.248257 105.778534
[R_mid_hand02]
27 104.070427 2.443552 8.231699 62.577339 -57.416626 24.150835 104.424065
28 104.070427 2.443552 8.231699 59.529907 -60.717239 27.702402 104.424065
[R_mid_hand03]
27 106.028137 -11.221827 -5.996406 -173.762726 14.561019 -63.787205 106.788818
28 106.028137 -11.221827 -5.996406 -174.753204 14.937834 -67.669373 106.788818
[spine02]
27 129.756927 0.001550 0.000119 -0.391607 -4.040488 -2.322254 129.756927
28 129.756927 0.001550 0.000119 -0.342493 -4.045263 -3.010311 129.756927
[spine03]
27 78.613960 0.081598 -4.899011 1.442322 4.023343 9.878632 78.766495
28 78.613953 0.081591 -4.899012 1.471663 4.011621 10.306636 78.766495
[pelvis]
27 169.435242 0.051022 0.000000 -0.016054 -0.191137 0.736999 169.435257
28 169.435242 0.051022 0.000000 -0.019168 -0.190985 1.615792 169.435257
[null_rope03_connect]
27 -1.257226 -2.466202 137.391083 -13.579685 -88.198532 83.192986 137.418976
28 -1.257226 -2.466202 137.391083 2.671755 -85.011230 66.892395 137.418976
[null_rope04_connect]
27 -1.259640 -2.480268 -137.844437 -13.579685 -88.198532 83.192986 137.872513
28 -1.259640 -2.480268 -137.844437 2.671755 -85.011230 66.892395 137.872513
[Rope3_Seg01]
27 0.000029 -0.000392 0.000000 -147.654755 -21.955351 -29.463091 0.000393
28 0.000027 -0.000406 0.000000 -148.810669 -23.459942 -30.938404 0.000407
[Rope3_Seg02]
27 139.999924 -0.000119 0.000060 17.123705 -12.939449 12.142510 139.999924
28 139.999924 -0.000119 0.000060 18.582306 -15.457568 13.313858 139.999924
[Rope3_Seg03]
27 139.999924 -0.000119 0.000119 7.412579 -5.397398 7.412597 139.999924
28 139.999924 -0.000119 0.000119 6.641679 -4.313370 8.992166 139.999924
[Rope3_Seg04]
27 139.999924 0.000119 0.000000 6.062065 -3.734111 10.318757 139.999924
28 139.999924 0.000119 0.000000 4.867922 -3.677788 8.416453 139.999924
[Rope3_Seg05]
27 139.999924 -0.000238 0.000060 6.274137 -3.007552 26.648447 139.999924
28 139.999924 -0.000238 0.000060 6.890601 -8.581195 20.428469 139.999924
[Rope3_Seg06]
27 139.999893 -0.000119 -0.000060 1.151064 0.184294 19.084023 139.999893
28 139.999893 -0.000119 -0.000060 2.397855 -5.813130 21.994106 139.999893
[Rope3_Seg07]
27 139.999771 0.000060 -0.000119 -0.145795 0.146760 8.778794 139.999771
28 139.999771 0.000060 -0.000119 0.030909 -2.313762 11.809973 139.999771
[Rope3_Seg08]
27 139.999985 -0.000060 0.000000 -0.099582 0.065185 4.755791 139.999985
28 139.999985 -0.000060 0.000000 -0.207368 -1.244878 6.466814 139.999985
[Rope3_Seg09]
27 90.185997 -0.000179 -0.000060 89.793228 -1.359877 -0.847183 90.185997
28 90.185997 -0.000179 -0.000060 89.793228 -1.359877 -0.847183 90.185997
[R_rear_hand01]
27 103.366196 -6.073594 -10.757982 -172.436646 23.546106 -61.016560 104.101845
28 103.366196 -6.073594 -10.757982 -174.043243 23.976641 -65.003036 104.101845
[R_rear_hand02]
27 100.509819 12.039542 -7.992327 -20.870361 33.419479 58.329987 101.543350
28 100.509819 12.039542 -7.992327 -18.533064 34.659111 62.503956 101.543350
[R_rear_hand03]
27 101.539970 5.215704 5.435467 78.426224 -60.383202 13.958292 101.819031
28 101.539970 5.215704 5.435467 76.952385 -63.971825 15.629140 101.819031
[Rope4_Seg01]
27 -0.000010 -0.000363 -0.000058 55.703060 -13.706401 -143.849167 0.000368
28 -0.000010 -0.000379 -0.000054 54.079597 -11.928526 -144.304626 0.000383
[Rope4_Seg02]
27 139.999985 0.000060 0.000119 -10.591575 4.026396 -10.204332 139.999985
28 139.999985 0.000060 0.000119 -10.323807 4.221180 -9.836940 139.999985
[Rope4_Seg03]
27 139.999924 0.000000 -0.000238 -13.518955 6.878771 -12.850613 139.999924
28 139.999924 0.000000 -0.000238 -12.785301 7.074714 -12.108635 139.999924
[Rope4_Seg04]
27 139.999985 0.000000 0.000119 -12.878426 3.869542 -13.921964 139.999985
28 139.999985 0.000000 0.000119 -11.947176 3.802920 -13.139757 139.999985
[Rope4_Seg05]
27 139.999802 -0.000060 -0.000119 -7.420731 22.304308 -3.453396 139.999802
28 139.999802 -0.000060 -0.000119 -7.449087 19.477800 -4.155078 139.999802
[Rope4_Seg06]
27 139.999924 0.000000 0.000060 4.362473 40.521343 11.749041 139.999924
28 139.999924 0.000000 0.000060 4.001086 42.522133 10.989027 139.999924
[Rope4_Seg07]
27 139.999802 0.000000 0.000000 3.230390 17.186619 2.987055 139.999802
28 139.999802 0.000000 0.000000 4.096282 20.246952 3.392889 139.999802
[Rope4_Seg08]
27 139.999924 0.000000 0.000119 0.584030 6.995909 0.691422 139.999924
28 139.999924 0.000000 0.000119 1.189522 7.747240 0.558101 139.999924
[Rope4_Seg09]
27 90.185791 0.000060 0.000060 -135.617828 2.228885 0.850567 90.185791
28 90.185791 0.000060 0.000060 -135.617828 2.228885 0.850567 90.185791
[L_rear_hand01]
27 101.696655 -8.392275 -7.654577 -14.875770 -36.204914 111.195351 102.329041
28 101.696655 -8.392275 -7.654577 -13.808590 -36.569187 109.397400 102.329041
[L_rear_hand02]
27 102.726799 -1.568258 5.773216 73.822189 69.166595 160.967651 102.900848
28 102.726799 -1.568258 5.773216 72.647583 70.590691 159.713425 102.900848
[L_rear_hand03]
27 104.552910 9.721220 -10.420293 -176.448364 -24.423326 -109.138062 105.519653
28 104.552910 9.721220 -10.420293 -177.121994 -24.509386 -107.501068 105.519653
